<?xml version="1.0" standalone="no"?>
<!DOCTYPE svg PUBLIC "-//W3C//DTD SVG 20010904//EN"
 "http://www.w3.org/TR/2001/REC-SVG-20010904/DTD/svg10.dtd">
<svg version="1.0" xmlns="http://www.w3.org/2000/svg"
 width="260.000000pt" height="260.000000pt" viewBox="0 0 260.000000 260.000000"
 preserveAspectRatio="xMidYMid meet">
<metadata>
Created by potrace 1.14, written by Peter Selinger 2001-2017
</metadata>
<g transform="translate(0.000000,260.000000) scale(0.100000,-0.100000)"
fill="#000000" stroke="none">
<path d="M1190 2390 c-36 -20 -258 -149 -495 -285 -237 -136 -437 -255 -447
-264 -11 -11 -18 -42 -22 -108 -4 -50 -9 -101 -11 -111 -2 -11 -6 -57 -10
-102 -4 -45 -8 -89 -10 -98 -1 -10 -6 -55 -9 -102 -4 -47 -9 -101 -11 -120 -2
-19 -7 -64 -10 -100 -3 -36 -8 -85 -10 -110 -2 -25 -7 -74 -10 -110 -3 -36 -8
-81 -10 -100 -2 -19 -7 -69 -10 -110 -3 -41 -8 -93 -10 -115 -3 -22 -7 -69
-10 -104 l-5 -63 38 7 c20 4 154 35 297 70 143 34 286 69 319 76 32 7 64 18
70 24 13 13 16 338 4 351 -4 3 -67 -10 -140 -31 -73 -20 -140 -39 -149 -41
-17 -5 -17 -3 -4 141 3 33 7 89 10 125 3 36 8 83 10 105 3 22 7 72 10 110 6
72 8 94 20 225 4 41 12 80 19 87 12 13 114 73 441 261 110 63 203 118 208 121
4 4 6 98 5 208 l-3 201 -65 -38z"/>
<path d="M1341 2083 c-3 -316 -4 -865 -2 -924 1 -16 8 -30 19 -34 23 -10 333
-115 338 -115 2 0 4 274 4 608 l0 608 -32 17 c-18 9 -55 29 -83 45 -27 16 -90
52 -138 81 -49 28 -92 51 -96 51 -4 0 -9 -152 -10 -337z"/>
<path d="M1769 2108 c-4 -321 -3 -598 4 -598 4 0 7 50 7 110 0 110 0 110 24
110 34 0 56 -10 56 -26 0 -16 50 -64 67 -64 7 0 10 6 8 13 -8 22 21 49 52 45
l28 -3 3 -112 c1 -62 7 -113 12 -113 4 0 15 -3 24 -6 12 -5 14 3 12 48 -2 29
0 63 5 75 10 27 53 40 74 23 8 -6 19 -9 25 -5 5 3 10 2 10 -4 0 -5 -6 -12 -12
-14 -7 -3 -3 -6 10 -6 13 -1 20 3 17 9 -3 6 -1 10 4 10 6 0 11 -11 11 -25 0
-20 5 -25 24 -25 13 0 26 -6 28 -12 10 -27 1 -130 -11 -138 -9 -5 -10 -9 -2
-11 16 -6 22 -46 10 -76 -7 -18 -6 -30 3 -41 7 -8 12 -18 10 -21 -1 -3 11 -7
28 -9 16 -2 30 1 31 5 3 38 26 80 37 69 2 -3 13 -1 24 5 18 10 19 18 13 107
-9 134 -14 189 -30 342 -2 14 -3 35 -4 47 -1 20 -100 84 -326 208 -27 15 -97
55 -155 88 -58 33 -108 62 -112 64 -5 2 -8 -29 -9 -69z m148 -130 c-3 -8 -6
-5 -6 6 -1 11 2 17 5 13 3 -3 4 -12 1 -19z m28 -168 c1 -28 -3 -50 -7 -50 -9
0 -11 13 -10 48 1 12 -3 22 -8 22 -6 0 -10 -9 -10 -20 0 -11 -5 -20 -10 -20
-12 0 -10 57 3 84 16 33 42 -6 42 -64z m-48 -82 c-3 -8 -6 -5 -6 6 -1 11 2 17
5 13 3 -3 4 -12 1 -19z m44 -3 c1 -17 -18 -17 -25 0 -4 11 -1 15 10 13 8 -2
15 -7 15 -13z"/>
<path d="M1800 1700 c0 -5 5 -10 10 -10 6 0 10 5 10 10 0 6 -4 10 -10 10 -5 0
-10 -4 -10 -10z"/>
<path d="M1829 1663 c-1 -5 -3 -32 -5 -60 -3 -50 -1 -53 22 -53 17 0 24 6 24
19 0 11 -5 21 -10 23 -6 2 -12 20 -13 41 -1 20 -5 37 -9 37 -5 0 -9 -3 -9 -7z"/>
<path d="M1945 1607 c-11 -35 -9 -67 6 -67 5 0 9 10 10 23 0 12 2 29 4 38 6
32 -11 37 -20 6z"/>
<path d="M1765 1470 c2 -42 11 -46 12 -5 0 19 -3 35 -6 35 -4 0 -7 -13 -6 -30z"/>
<path d="M2059 1448 c0 -2 -2 -21 -4 -43 -1 -22 -3 -46 -4 -54 -1 -11 -4 -11
-18 0 -15 12 -16 12 -10 -4 4 -10 7 -23 7 -28 0 -5 6 -8 12 -6 10 1 13 -29 13
-121 0 -68 -3 -126 -7 -128 -4 -3 -4 -12 -1 -20 16 -42 23 26 22 209 0 165 -3
213 -10 195z"/>
<path d="M1969 1430 c-3 -8 -5 -80 -4 -160 0 -122 2 -145 15 -145 13 0 15 22
16 132 0 121 -14 212 -27 173z"/>
<path d="M1873 1413 c10 -9 56 -10 51 -1 -3 4 -17 8 -31 8 -15 0 -23 -3 -20
-7z"/>
<path d="M2120 1381 c0 -5 5 -13 10 -16 6 -3 10 -2 10 4 0 5 -4 13 -10 16 -5
3 -10 2 -10 -4z"/>
<path d="M2200 1339 c0 -5 5 -7 10 -4 6 3 10 8 10 11 0 2 -4 4 -10 4 -5 0 -10
-5 -10 -11z"/>
<path d="M2405 1259 c-4 -6 -5 -12 -2 -15 2 -3 7 2 10 11 7 17 1 20 -8 4z"/>
<path d="M2350 1210 c0 -5 12 -10 28 -10 21 0 24 2 12 10 -20 13 -40 13 -40 0z"/>
<path d="M2090 1190 c0 -5 5 -10 11 -10 5 0 7 5 4 10 -3 6 -8 10 -11 10 -2 0
-4 -4 -4 -10z"/>
<path d="M2266 1155 c-6 -17 2 -45 14 -45 12 0 18 22 12 43 -5 21 -18 22 -26
2z"/>
<path d="M1140 1034 c-85 -30 -174 -61 -197 -70 l-43 -16 0 -203 0 -203 53
-30 c28 -16 118 -64 199 -106 l148 -78 177 93 c98 50 190 100 204 110 l26 18
0 191 c0 124 -4 195 -11 204 -6 7 -92 41 -191 74 -99 33 -187 62 -195 65 -8 3
-85 -19 -170 -49z m180 -167 c22 -18 23 -227 0 -244 -20 -16 -26 -16 -43 1
-21 22 -19 233 3 246 19 12 22 12 40 -3z"/>
<path d="M2248 1023 c7 -3 16 -2 19 1 4 3 -2 6 -13 5 -11 0 -14 -3 -6 -6z"/>
<path d="M2348 1023 c7 -3 16 -2 19 1 4 3 -2 6 -13 5 -11 0 -14 -3 -6 -6z"/>
<path d="M2375 980 c-3 -5 1 -10 10 -10 9 0 13 5 10 10 -3 6 -8 10 -10 10 -2
0 -7 -4 -10 -10z"/>
<path d="M2410 980 c0 -6 7 -10 15 -10 8 0 15 2 15 4 0 2 -7 6 -15 10 -8 3
-15 1 -15 -4z"/>
<path d="M1770 741 c0 -199 -5 -184 67 -197 16 -3 46 -10 68 -16 22 -5 47 -11
55 -13 8 -2 44 -11 80 -20 36 -9 72 -18 80 -20 8 -2 91 -22 183 -44 93 -23
175 -41 183 -41 11 0 13 11 9 55 -3 30 -7 81 -10 113 -9 94 -17 157 -21 161
-4 4 -252 79 -285 86 -9 2 -72 20 -140 40 -68 21 -149 44 -179 52 -30 7 -63
16 -72 19 -17 5 -18 -8 -18 -175z"/>
</g>
</svg>
